# xmcd
#
# Track frame offsets:
#	150
#	12967
#	33693
#	54937
#	72487
#	88811
#	96076
#	114736
#	132932
#	152489
#	167225
#	186823
#	201067
#	226644
#
# Disc length: 3489 seconds
#
# Revision: 1
# Processed by: cddbd v1.5.2PL0 Copyright (c) Steve Scherf et al.
# Submitted via: audiograbber 1.83.01
#
DISCID=b60d9f0e
DTITLE=Doug Kwartler - Halfway House
DYEAR=2003
DGENRE=Country Rock
TTITLE0=You Were Still
TTITLE1=The Ride
TTITLE2=Range
TTITLE3=Morning Burn
TTITLE4=Mars
TTITLE5=Prelude
TTITLE6=Places
TTITLE7=Feel Like Sleeping
TTITLE8=Nighttime
TTITLE9=Dreamcatcher
TTITLE10=Halfway House
TTITLE11=All Good
TTITLE12=Hometown Of My Own
TTITLE13=Things We Never Mention
EXTD=
EXTT0=
EXTT1=
EXTT2=
EXTT3=
EXTT4=
EXTT5=
EXTT6=
EXTT7=
EXTT8=
EXTT9=
EXTT10=
EXTT11=
EXTT12=
EXTT13=
PLAYORDER=
